<svg xmlns="http://www.w3.org/2000/svg" fill="currentColor" viewBox="0 0 1081 1024">
  <path d="M646.519 375.464h-28.444c0 15.71 12.732 28.444 28.444 28.444v-28.444zm0-182.043zM499.112 56.889V28.445a28.444 28.444 0 0 0-25.645 16.139l25.645 12.305zM302.571 466.486l-25.644-12.305a28.44 28.44 0 0 0-2.8 12.305h28.444zm0 500.619h-28.444c0 15.707 12.735 28.444 28.444 28.444v-28.444zm554.244 0 .302-28.444h-.302v28.444zm98.27-77.368-28.063-4.648-.006.051 28.069 4.597zm67.806-409.598 28.063 4.646.011-.046-28.075-4.6zm-98.27-104.675v28.446l.302-.003-.302-28.443zM302.565 967.105v28.444c15.709 0 28.444-12.737 28.444-28.444h-28.444zm0-500.619h28.444c0-15.709-12.735-28.444-28.444-28.444v28.444zm372.399-91.022V193.421h-56.889v182.043h56.889zm0-182.043c0-93.127-80.822-164.977-175.852-164.977v56.889c67.792 0 118.963 50.406 118.963 108.088h56.889zM473.467 44.583 276.927 454.18l51.289 24.611L524.757 69.194l-51.29-24.611zm-199.34 421.903v500.619h56.889V466.486h-56.889zm28.444 529.064h554.244v-56.889H302.571v56.889zm553.948 0c61.417.643 116.764-40.926 126.64-101.217l-56.144-9.193c-4.824 29.463-33.314 53.908-69.899 53.521l-.597 56.889zm126.629-101.166 67.806-409.599-56.121-9.291-67.812 409.595 56.127 9.296zm67.817-409.645c5.808-35.462-5.598-71.105-30.339-97.454l-41.472 38.938c13.102 13.954 18.512 31.973 15.667 49.317l56.144 9.2zm-30.339-97.454c-24.622-26.231-59.898-40.645-96.302-40.264l.597 56.886c21.259-.223 41.017 8.243 54.232 22.315l41.472-38.938zm-96.005-40.265H646.52v56.889h278.101V347.02zM302.565 938.661H155.16v56.889h147.405v-56.889zm-147.406 0c-40.656 0-69.826-30.032-69.826-62.578H28.444c0 67.994 58.824 119.467 126.715 119.467v-56.889zm-69.826-62.578V557.507H28.444v318.576h56.889zm0-318.575c0-32.547 29.17-62.577 69.826-62.577v-56.889c-67.891 0-126.715 51.474-126.715 119.466h56.889zm69.826-62.578h147.405v-56.889H155.159v56.889zm118.961-28.444v500.619h56.889V466.486H274.12z"/>
</svg>
